<svg width="405" height="266" viewBox="0 0 405 266" fill="none" xmlns="http://www.w3.org/2000/svg">
<g clip-path="url(#clip0)">
<path d="M45.1714 115.008C45.1725 117.408 45.6055 119.664 46.4704 121.775C47.3353 123.791 48.4881 125.566 49.9288 127.102C51.4655 128.637 53.242 129.836 55.2584 130.699C57.3708 131.563 59.627 131.993 62.027 131.992C64.331 131.991 66.4908 131.558 68.5064 130.694C70.618 129.829 72.3935 128.628 73.8328 127.091C75.3681 125.554 76.5673 123.778 77.4304 121.762C78.3895 119.745 78.8686 117.585 78.8675 115.281C78.8665 112.977 78.3855 110.817 77.4246 108.802C76.5597 106.69 75.3589 104.866 73.8222 103.331C72.3815 101.796 70.605 100.597 68.4926 99.7335C66.4762 98.8704 64.316 98.4394 62.012 98.4404C59.612 98.4415 57.3562 98.8745 55.2446 99.7395C53.229 100.604 51.4535 101.805 49.9182 103.342C48.4789 104.878 47.3277 106.655 46.4646 108.671C45.6014 110.592 45.1704 112.704 45.1714 115.008ZM77.987 78.2733L104.195 78.2615L104.228 152.134L78.02 152.145L78.0164 143.937C72.4515 150.948 64.9171 154.455 55.4131 154.459C50.0371 154.462 45.0926 153.504 40.5798 151.586C36.0669 149.572 32.1296 146.79 28.768 143.239C25.4064 139.689 22.7646 135.514 20.8424 130.715C19.0163 125.916 18.1019 120.684 18.0994 115.02C18.097 109.74 19.0068 104.748 20.8287 100.043C22.6506 95.242 25.1927 91.0649 28.4551 87.5114C31.7175 83.958 35.6043 81.1722 40.1154 79.1542C44.6264 77.0402 49.6179 75.982 55.0899 75.9795C64.3059 75.9754 71.9394 79.188 77.9903 85.6173L77.987 78.2733ZM195.078 114.941C195.079 117.341 195.512 119.597 196.377 121.708C197.242 123.724 198.394 125.499 199.835 127.035C201.372 128.57 203.148 129.769 205.165 130.632C207.277 131.495 209.533 131.926 211.933 131.925C214.237 131.924 216.397 131.491 218.413 130.626C220.524 129.761 222.3 128.561 223.739 127.024C225.274 125.487 226.474 123.711 227.337 121.694C228.296 119.678 228.775 117.518 228.774 115.214C228.773 112.91 228.292 110.75 227.331 108.734C226.466 106.623 225.265 104.799 223.728 103.264C222.288 101.729 220.511 100.529 218.399 99.6664C216.382 98.8033 214.222 98.3723 211.918 98.3733C209.518 98.3744 207.262 98.8074 205.151 99.6724C203.135 100.537 201.36 101.738 199.824 103.275C198.385 104.811 197.234 106.588 196.371 108.604C195.508 110.525 195.077 112.637 195.078 114.941ZM227.893 78.2062L254.101 78.1944L254.134 152.066L227.926 152.078L227.923 143.87C222.358 150.881 214.823 154.388 205.319 154.392C199.943 154.395 194.999 153.437 190.486 151.519C185.973 149.505 182.036 146.723 178.674 143.172C175.313 139.622 172.671 135.447 170.749 130.648C168.923 125.849 168.008 120.617 168.006 114.953C168.003 109.673 168.913 104.681 170.735 99.9758C172.557 95.1749 175.099 90.9978 178.361 87.4443C181.624 83.8909 185.51 81.1051 190.022 79.0871C194.533 76.9731 199.524 75.9149 204.996 75.9124C214.212 75.9083 221.846 79.1209 227.896 85.5502L227.893 78.2062Z" fill="#FF007A"/>
<path d="M161.748 150.192C157.849 149.509 154.278 149.413 151.034 149.903C147.743 150.31 144.84 151.215 142.325 152.618C139.139 154.395 136.961 156.6 135.791 159.231C134.621 161.863 134.714 164.394 136.07 166.826C137.006 168.502 138.28 169.605 139.894 170.134C141.508 170.662 143.346 170.901 145.406 170.851C147.504 170.67 149.723 170.312 152.062 169.776C154.485 169.194 156.89 168.677 159.276 168.225C168.821 166.418 176.701 166.749 182.915 169.218C189.167 171.556 194.304 176.331 198.326 183.541C201.039 188.403 202.656 193.272 203.177 198.148C203.783 202.977 203.288 207.705 201.692 212.333C200.134 216.83 197.47 221.119 193.701 225.201C190.062 229.319 185.351 232.992 179.566 236.219C167.577 242.908 154.481 245.542 140.278 244.122L139.756 218.359C145.269 219.571 150.272 219.968 154.766 219.549C159.26 219.131 163.267 217.94 166.788 215.975C170.812 213.73 173.274 211.148 174.173 208.228C175.156 205.261 174.993 202.604 173.683 200.256C172.888 198.831 171.959 197.756 170.894 197.03C169.783 196.221 168.407 195.725 166.766 195.541C165.078 195.274 163.059 195.301 160.71 195.622C158.444 195.896 155.713 196.321 152.516 196.895C148.769 197.667 145.017 198.331 141.26 198.887C137.541 199.314 133.904 199.199 130.35 198.543C126.88 197.841 123.549 196.401 120.356 194.225C117.2 191.918 114.313 188.418 111.694 183.723C109.075 179.028 107.467 174.373 106.871 169.759C106.313 165.014 106.669 160.528 107.938 156.302C109.245 151.945 111.49 147.89 114.672 144.135C117.938 140.335 122.087 137.031 127.117 134.225C131.811 131.606 137.09 129.54 142.952 128.029C148.768 126.433 154.725 125.583 160.823 125.479L161.748 150.192Z" fill="#FF007A"/>
<path d="M258.775 79.6954L284.838 79.4128L284.936 88.4843C291.966 81.5916 299.896 78.0974 308.728 78.0017C319.671 77.883 328.073 82.4002 333.932 91.5532C339.687 82.1782 347.988 77.4319 358.835 77.3143C362.291 77.2768 365.561 77.7694 368.644 78.792C371.726 79.7187 374.383 81.274 376.615 83.4579C378.846 85.5458 380.604 88.3109 381.889 91.7532C383.271 95.1944 383.988 99.3629 384.041 104.259L384.561 152.208L358.499 152.49L358.103 116.061C358.063 112.317 357.742 109.248 357.14 106.854C356.634 104.46 355.845 102.596 354.775 101.264C353.8 99.9302 352.639 99.0308 351.289 98.5654C349.94 98.1 348.498 97.8756 346.962 97.8923C338.61 97.9828 334.501 104.124 334.633 116.315L335.028 152.745L308.965 153.028L308.57 116.598C308.53 112.854 308.257 109.785 307.751 107.39C307.243 104.899 306.502 102.939 305.527 101.51C304.647 100.079 303.485 99.1318 302.04 98.6674C300.593 98.1071 298.91 97.8373 296.991 97.8581C295.359 97.8758 293.825 98.1325 292.391 98.628C290.956 99.1236 289.67 100.098 288.534 101.55C287.493 102.905 286.65 104.835 286.005 107.338C285.455 109.744 285.201 112.915 285.244 116.851L285.639 153.28L259.576 153.563L258.775 79.6954Z" fill="#FF007A"/>
<path d="M258.775 79.6954L258.764 78.6955L257.765 78.7063L257.775 79.7063L258.775 79.6954ZM284.838 79.4128L285.838 79.402L285.827 78.402L284.827 78.4129L284.838 79.4128ZM284.936 88.4843L283.936 88.4951L283.962 90.8403L285.636 89.1983L284.936 88.4843ZM333.932 91.5532L333.09 92.0923L333.95 93.4357L334.785 92.0763L333.932 91.5532ZM368.644 78.792L368.329 79.7412L368.343 79.7456L368.356 79.7497L368.644 78.792ZM376.615 83.4579L375.916 84.1726L375.924 84.1804L375.932 84.188L376.615 83.4579ZM381.889 91.7532L380.953 92.103L380.957 92.1144L380.961 92.1257L381.889 91.7532ZM384.561 152.208L384.572 153.208L385.572 153.197L385.561 152.197L384.561 152.208ZM358.499 152.49L357.499 152.501L357.509 153.501L358.509 153.49L358.499 152.49ZM357.14 106.854L356.161 107.061L356.165 107.08L356.17 107.098L357.14 106.854ZM354.775 101.264L353.967 101.854L353.981 101.872L353.995 101.89L354.775 101.264ZM351.289 98.5654L351.615 97.6201L351.615 97.6201L351.289 98.5654ZM335.028 152.745L335.039 153.745L336.039 153.734L336.028 152.734L335.028 152.745ZM308.965 153.028L307.965 153.038L307.976 154.038L308.976 154.027L308.965 153.028ZM307.751 107.39L306.771 107.59L306.772 107.597L307.751 107.39ZM305.527 101.51L304.675 102.034L304.687 102.054L304.701 102.073L305.527 101.51ZM302.04 98.6674L301.678 99.5999L301.706 99.6105L301.734 99.6195L302.04 98.6674ZM292.391 98.628L292.064 97.6828L292.391 98.628ZM288.534 101.55L287.746 100.934L287.741 100.941L288.534 101.55ZM286.005 107.338L285.036 107.088L285.033 107.102L285.03 107.115L286.005 107.338ZM285.639 153.28L285.65 154.28L286.65 154.27L286.639 153.27L285.639 153.28ZM259.576 153.563L258.576 153.574L258.587 154.574L259.587 154.563L259.576 153.563ZM258.786 80.6954L284.849 80.4127L284.827 78.4129L258.764 78.6955L258.786 80.6954ZM283.838 79.4237L283.936 88.4951L285.936 88.4734L285.838 79.402L283.838 79.4237ZM285.636 89.1983C292.505 82.4638 300.196 79.0943 308.739 79.0016L308.717 77.0017C299.597 77.1006 291.427 80.7195 284.236 87.7702L285.636 89.1983ZM308.739 79.0016C319.34 78.8867 327.418 83.2322 333.09 92.0923L334.775 91.014C328.727 81.5682 320.002 76.8794 308.717 77.0017L308.739 79.0016ZM334.785 92.0763C340.362 82.9894 348.349 78.4281 358.846 78.3143L358.825 76.3144C347.628 76.4358 339.012 81.3671 333.08 91.03L334.785 92.0763ZM358.846 78.3143C362.199 78.2779 365.357 78.7556 368.329 79.7412L368.959 77.8429C365.764 76.7833 362.384 76.2758 358.825 76.3144L358.846 78.3143ZM368.356 79.7497C371.288 80.6313 373.803 82.1053 375.916 84.1726L377.314 82.7432C374.964 80.4426 372.164 78.8061 368.932 77.8344L368.356 79.7497ZM375.932 84.188C378.029 86.1512 379.71 88.7764 380.953 92.103L382.826 91.4034C381.498 87.8454 379.662 84.9405 377.298 82.7278L375.932 84.188ZM380.961 92.1257C382.284 95.4215 382.989 99.4602 383.041 104.269L385.041 104.248C384.987 99.2656 384.257 94.9673 382.817 91.3807L380.961 92.1257ZM383.041 104.269L383.561 152.219L385.561 152.197L385.041 104.248L383.041 104.269ZM384.55 151.208L358.488 151.49L358.509 153.49L384.572 153.208L384.55 151.208ZM359.498 152.48L359.103 116.05L357.104 116.071L357.499 152.501L359.498 152.48ZM359.103 116.05C359.062 112.263 358.738 109.109 358.109 106.611L356.17 107.098C356.745 109.387 357.063 112.37 357.104 116.071L359.103 116.05ZM358.118 106.648C357.593 104.161 356.756 102.133 355.554 100.637L353.995 101.89C354.934 103.059 355.675 104.758 356.161 107.061L358.118 106.648ZM355.582 100.674C354.507 99.2022 353.187 98.162 351.615 97.6201L350.963 99.5107C352.09 99.8995 353.094 100.658 353.967 101.854L355.582 100.674ZM351.615 97.6201C350.15 97.1145 348.593 96.8745 346.951 96.8923L346.973 98.8922C348.403 98.8767 349.73 99.0855 350.963 99.5107L351.615 97.6201ZM346.951 96.8923C342.495 96.9406 339.049 98.626 336.785 102.01C334.566 105.325 333.566 110.147 333.633 116.326L335.633 116.304C335.568 110.292 336.556 105.948 338.447 103.122C340.292 100.365 343.077 98.9345 346.973 98.8922L346.951 96.8923ZM333.633 116.326L334.028 152.756L336.028 152.734L335.633 116.304L333.633 116.326ZM335.017 151.745L308.955 152.028L308.976 154.027L335.039 153.745L335.017 151.745ZM309.965 153.017L309.57 116.587L307.57 116.608L307.965 153.038L309.965 153.017ZM309.57 116.587C309.529 112.808 309.254 109.667 308.729 107.183L306.772 107.597C307.259 109.903 307.53 112.9 307.57 116.608L309.57 116.587ZM308.73 107.191C308.208 104.625 307.43 102.524 306.353 100.946L304.701 102.073C305.575 103.354 306.279 105.173 306.771 107.589L308.73 107.191ZM306.378 100.986C305.388 99.3753 304.043 98.2607 302.346 97.7154L301.734 99.6195C302.927 100.003 303.906 100.783 304.675 102.034L306.378 100.986ZM302.401 97.735C300.812 97.1191 298.997 96.8363 296.98 96.8582L297.001 98.8581C298.823 98.8383 300.375 99.095 301.678 99.5999L302.401 97.735ZM296.98 96.8582C295.248 96.877 293.608 97.1496 292.064 97.6828L292.717 99.5732C294.043 99.1153 295.469 98.8747 297.001 98.8581L296.98 96.8582ZM292.064 97.6828C290.411 98.2537 288.976 99.3625 287.746 100.934L289.322 102.166C290.365 100.833 291.5 99.9935 292.717 99.5732L292.064 97.6828ZM287.741 100.941C286.587 102.443 285.699 104.515 285.036 107.088L286.973 107.587C287.6 105.154 288.399 103.367 289.327 102.159L287.741 100.941ZM285.03 107.115C284.455 109.629 284.201 112.888 284.244 116.861L286.244 116.84C286.201 112.942 286.454 109.859 286.98 107.561L285.03 107.115ZM284.244 116.861L284.639 153.291L286.639 153.27L286.244 116.84L284.244 116.861ZM285.628 152.281L259.565 152.563L259.587 154.563L285.65 154.28L285.628 152.281ZM260.576 153.552L259.775 79.6846L257.775 79.7063L258.576 153.574L260.576 153.552Z" fill="#FF007A"/>
<path d="M130.015 33.122L175.899 77.6455L163.854 95.3635L116.081 62.8861L130.015 33.122Z" fill="#FF007A"/>
</g>
<defs>
<clipPath id="clip0">
<rect width="404.881" height="264.981" fill="white" transform="translate(0 0.200012) rotate(-0.0256452)"/>
</clipPath>
</defs>
</svg>
